<?xml version="1.0" encoding="UTF-8"?> <svg xmlns="http://www.w3.org/2000/svg" xmlns:xlink="http://www.w3.org/1999/xlink" width="150px" height="69px" viewBox="0 0 150 69" version="1.1"><!-- Generator: Sketch 62 (91390) - https://sketch.com/ --><title>full-colour@2x</title><desc>Created with Sketch.</desc><g id="Careers-&amp;-About" stroke="none" stroke-width="1" fill="none" fill-rule="evenodd"><g id="Careers---Desktop" transform="translate(-98.000000, -46.000000)" fill-rule="nonzero"><g id="Oval"><g id="banner"><g id="Group-Copy-3" transform="translate(98.000000, 46.000000)"><g id="full-colour"><path d="M66.5811614,54.7005996 C65.5545561,54.7451281 64.526333,54.6647884 63.5192189,54.4613562 C62.6461569,58.3646765 59.8553681,61.5646233 56.0995275,62.9688498 C53.9418754,63.8091774 51.6388185,64.2157176 49.32294,64.1650665 L44.2452986,64.1650665 L34.5603456,64.1172178 L24.8369984,64.1172178 L19.7593571,64.1172178 C17.4434007,64.1688816 15.140146,63.7623065 12.9827696,62.9210011 C8.89904724,61.3986578 5.97820846,57.7705109 5.37110681,53.4661039 C4.99676275,51.303344 4.77599573,27.053638 4.98716418,18.2494827 C5.1215441,12.3258174 7.72275545,8.24911071 12.6660169,6.1341995 C14.6269524,5.36117009 16.7104869,4.94312234 18.8186976,4.89970381 C19.9321312,4.89970381 27.1694499,4.82314594 34.5219514,4.8135762 C41.8744528,4.80400647 49.1213701,4.8135762 50.2348037,4.89970381 C52.3429243,4.94393765 54.4263156,5.36195668 56.3874844,6.1341995 C61.3691401,8.24911071 63.9607529,12.3258174 64.0663371,18.2494827 C64.0663371,20.4313821 64.1431257,23.5606851 64.1431257,27.0632078 C64.997135,26.928441 65.8604997,26.8612433 66.7251399,26.8622434 C67.4869002,26.8665185 68.2472857,26.9272946 69,27.0440683 C69,23.5128364 69,20.3452545 68.9232115,18.1346459 C68.7312402,10.2491851 65.0837851,4.56476312 58.2496062,1.68427318 C55.7435963,0.680687594 53.0784257,0.129811915 50.3787822,0.057418404 C48.4014776,0 41.0105819,0 34.5603456,0 C28.1101094,0 20.623228,0 18.6267263,0.105267074 C15.9269642,0.176642427 13.2616149,0.727555036 10.7559023,1.73212185 C3.96011763,4.61261179 0.274268335,10.2970338 0.0822970172,18.1824946 C-0.128871432,27.2928814 0.0822970172,51.877528 0.533429613,54.3178102 C1.44003366,60.2332587 5.43178127,65.2225332 11.0150635,67.4187761 C13.7635328,68.5026616 16.6983942,69.0391033 19.6537728,68.9977822 C20.1624968,68.9977822 21.573486,68.9977822 23.4931992,68.9977822 L34.5219514,68.9977822 L45.5507036,68.9977822 C47.5280081,68.9977822 48.9006031,68.9977822 49.3901299,68.9977822 C52.3454461,69.0383612 55.2801643,68.5019456 58.0288392,67.4187761 C63.5460381,65.2395648 67.5083859,60.3296731 68.4624803,54.4900654 C67.8402788,54.5985095 67.2119939,54.6688195 66.5811614,54.7005996 Z" id="Path" fill="#18B28D"></path><circle id="Oval" fill="#18B28D" cx="34.5" cy="21.5" r="3.5"></circle><rect id="Rectangle" fill="#FFFFFF" x="32" y="31" width="5" height="18"></rect><polygon id="Path" fill="#FFFFFF" points="49.1217656 40.7113295 48.8614916 42.2152095 48.543379 40.7703052 45.1501776 31 39 31 47.0010147 50 50.2881786 50 58 31 52.2354135 31"></polygon><path d="M83.8515498,31.7813076 C83.2802903,32.1821667 82.7973772,32.694351 82.4323002,33.2865834 L82.4323002,31.4025608 L77,31.4025608 L77,50 L82.4127243,50 L82.4127243,38.3462522 C82.4189786,38.0886885 82.5281288,37.844146 82.7161501,37.6664503 C82.9544593,37.432587 83.2169166,37.2242615 83.4991843,37.044917 C83.9130952,36.7572204 84.3599354,36.5192462 84.8303426,36.3359807 C85.8265008,36.0321489 86.8975779,36.0767141 87.8646003,36.4622297 L88.2854812,36.6079015 L89,31.5093868 L88.7455139,31.4219837 C86.6215334,30.7227589 85.0652529,30.9266995 83.8515498,31.7813076 Z" id="Path" fill="#FFFFFF"></path><path d="M100.740181,39.6191116 C100.106138,39.1903249 99.4173422,38.843907 98.6912331,38.5886289 C97.9823553,38.3333717 97.3220308,38.0970224 96.7491022,37.8701271 C96.2503907,37.6958029 95.7719285,37.4708175 95.321636,37.1988953 C95.0488964,37.0570314 94.8775582,36.7814338 94.8749459,36.4803936 C94.8749459,35.9131554 95.069159,35.2608315 96.5840211,35.2608315 C97.4014404,35.2797234 98.2120926,35.4102 98.9922634,35.6484442 C99.8079584,35.8753395 100.487704,36.0927808 101.031501,36.3007681 L101.390795,36.4331237 L102.624048,32.5380881 L102.381282,32.3962786 C101.535907,31.9721991 100.638564,31.6545179 99.7108518,31.4508816 C98.4797871,31.1466145 97.2131329,31.0004137 95.9431179,31.015999 C94.2515796,30.9031554 92.5752392,31.3900777 91.2237399,32.3868246 C90.0313354,33.4682512 89.3944268,35.0097734 89.4855327,36.5938412 C89.4488285,37.5488669 89.6769199,38.495897 90.1458572,39.3354925 C90.5547105,40.0085112 91.0958852,40.5964206 91.7384045,41.065569 C92.3681105,41.5195354 93.0656999,41.876647 93.8067739,42.1244136 C94.5124148,42.3702168 95.1597918,42.6065661 95.7489048,42.8334613 C96.2493605,43.0272813 96.7277556,43.2712454 97.176371,43.561417 C97.4698751,43.7397735 97.6437356,44.0566948 97.6327718,44.3933664 C97.6559698,44.7658047 97.4796493,45.1234293 97.1666604,45.3387634 C96.718251,45.5769563 96.2103483,45.6882956 95.7003516,45.6601983 C94.7900445,45.6598231 93.885514,45.5194343 93.0202109,45.2442237 C92.2888585,45.0215448 91.5802052,44.7335501 90.9032883,44.3839124 L90.5439941,44.185379 L89,48.2127702 L89.252477,48.3640337 C90.1250892,48.8619897 91.0624583,49.243561 92.0394348,49.4985101 C93.2302992,49.82641 94.4628035,49.9887341 95.7003516,49.9806626 C97.6558713,50.1149368 99.5940892,49.546487 101.148029,48.3829417 C102.401767,47.2442649 103.076692,45.6257609 102.993053,43.9584838 C103.033981,43.0211117 102.805288,42.0912307 102.332729,41.2735563 C101.926303,40.619907 101.383817,40.0563368 100.740181,39.6191116 L100.740181,39.6191116 Z" id="Path" fill="#FFFFFF"></path><path d="M120.850168,33.6448653 C120.131636,32.7972444 119.225868,32.1306394 118.205362,31.698406 C117.018414,31.2169821 115.746564,30.9834394 114.467119,31.0119735 C112.124031,30.8834827 109.842587,31.7941228 108.224254,33.5038175 C106.747648,35.1399717 106,37.5001712 106,40.4997872 C106.011504,41.8028667 106.206588,43.0977224 106.579428,44.3456899 C106.893078,45.4526763 107.43435,46.4810224 108.168181,47.3641123 C108.890638,48.2092403 109.799573,48.8725999 110.822333,49.3011684 C112.007865,49.7874926 113.280734,50.0212224 114.560575,49.987601 C116.899424,50.1182771 119.177684,49.210981 120.794094,47.5051601 C122.252009,45.8690059 122.999657,43.5088064 122.999657,40.4997872 C123.008778,39.2029778 122.835731,37.911377 122.485649,36.6632877 C122.151479,35.5551589 121.594835,34.5278245 120.850168,33.6448653 Z M116.859594,44.3550931 C116.336145,45.1230945 115.446155,45.5529217 114.523193,45.4834753 C113.529143,45.5509469 112.585896,45.0342778 112.102681,44.1576262 C111.831242,43.656901 111.63593,43.1180679 111.523253,42.5590848 C111.387237,41.8876765 111.321459,41.2037849 111.326995,40.5185936 C111.212248,39.1660881 111.512327,37.8106955 112.186791,36.6350782 C112.719354,35.9002804 113.582917,35.4834985 114.48581,35.5255023 C115.461481,35.4407635 116.394053,35.9468641 116.859594,36.8137387 C117.404161,37.962581 117.660852,39.228116 117.607243,40.4997872 C117.718822,41.8298185 117.459927,43.1648274 116.859594,44.3550931 Z" id="Shape" fill="#FFFFFF"></path><path d="M136.72063,24.7087232 C135.217197,24.2057347 133.643151,23.9697854 132.06447,24.0107654 C130.498034,23.9114738 128.963698,24.5025082 127.836676,25.6393337 C126.858883,26.715352 126.36533,28.4505526 126.36533,30.7964664 L126.36533,31.436261 L124,31.436261 L124,36.0796192 L126.36533,36.0796192 L126.36533,50 L131.487106,50 L131.487106,36.0796192 L135.258596,36.0796192 L135.258596,31.436261 L131.487106,31.436261 C131.487106,31.0226564 131.505731,30.6445959 131.54298,30.3020796 C131.563295,29.9699533 131.632387,29.6430296 131.747851,29.3326937 C131.831924,29.1240397 131.983465,28.952573 132.176218,28.8480008 C132.866073,28.6362103 133.595681,28.60623 134.299427,28.7607561 C134.749957,28.8372928 135.192654,28.9573695 135.621777,29.1194289 L135.984957,29.245449 L137,24.8347434 L136.72063,24.7087232 Z" id="Path" fill="#FFFFFF"></path><path d="M149.004505,44.4202361 L148.604354,44.5956669 C148.24469,44.7607555 147.872694,44.8976157 147.491742,45.0050055 C147.115607,45.1012372 146.728332,45.147121 146.34009,45.1414517 C145.884666,45.2026529 145.4434,44.9565235 145.256757,44.53719 C144.972231,43.7309658 144.852751,42.8758884 144.905405,42.0226815 L144.905405,35.4927566 L149.297297,35.4927566 L149.297297,30.8243475 L144.905405,30.8243475 L144.905405,26 L139.488739,27.5398928 L139.488739,30.8243475 L137,30.8243475 L137,35.4927566 L139.488739,35.4927566 L139.488739,44.1765822 C139.351616,45.7556991 139.799609,47.3301579 140.747748,48.6013373 C141.795321,49.5918787 143.213123,50.0944969 144.651652,49.9852915 C145.566305,49.9874164 146.477683,49.8761083 147.364865,49.6539222 C148.181635,49.4549361 148.976203,49.1741228 149.736486,48.8157527 L150,48.6890527 L149.004505,44.4202361 Z" id="Path" fill="#FFFFFF"></path><path d="M74.9798126,39.2563999 L74.9798126,39.2563999 C74.943871,38.2961291 74.779132,37.3447022 74.4898544,36.4267151 C73.939904,34.5954046 72.7179139,33.0293267 71.0601469,32.0312715 C70.5967995,31.7541548 70.0997206,31.5354886 69.5806653,31.380444 C68.6959771,31.1355027 67.7810686,31.0117132 66.8618776,31.0125849 C64.4434004,30.8832234 62.0805413,31.7557451 60.3483154,33.417817 C58.8015846,35.0024404 58.0138087,37.3982402 58.0138087,40.5391903 C57.8886722,42.9948293 58.616972,45.4193572 60.0793188,47.4153242 C61.4627302,49.1319997 63.6627386,49.9997697 66.6120949,49.9997697 C67.9645519,50.0077714 69.3099033,49.8072521 70.5990098,49.4055359 C71.6775717,49.0941446 72.6920945,48.5993022 73.5964012,47.9435321 L73.8173628,47.7643187 L71.9728142,44.1800513 L71.6365684,44.434723 C71.1250633,44.7891386 70.5656567,45.0716913 69.9745533,45.2741961 C69.1807223,45.5576658 68.3405016,45.6951554 67.4959411,45.6797843 C66.370368,45.7995164 65.2443151,45.4582907 64.3832654,44.736556 C63.7448466,43.9671462 63.3834411,43.0120846 63.3553139,42.0200586 L74.7012089,42.0200586 C74.9511377,41.1206724 75.0453176,40.1864386 74.9798126,39.2563999 Z M69.3212756,38.4829527 L63.4802052,38.4829527 C63.5888129,37.6576835 63.9205369,36.8760268 64.4409076,36.2192049 C64.8580974,35.7262704 65.4540219,35.4117448 66.1029227,35.3420026 C66.3154994,35.3065063 66.531005,35.2907163 66.7465933,35.2948412 L66.8330565,35.2948412 C67.0486447,35.2907163 67.2641504,35.3065063 67.4767271,35.3420026 C68.1265496,35.4088189 68.7235297,35.7239016 69.1387422,36.2192049 C69.6591129,36.8760268 69.9908369,37.6576835 70.0994446,38.4829527 L69.3212756,38.4829527 Z" id="Shape" fill="#FFFFFF"></path></g></g></g></g></g></g></svg> 